<svg xmlns="http://www.w3.org/2000/svg" viewBox="0 0 452.37 83.76"><defs><style>.a{fill:#222637;}.b{fill:#00cc50;}</style></defs><path class="a" d="M40,247.92a.3.3,0,0,1,.08-.08,3.75,3.75,0,0,1,1.37-.4c.53-.1,1.07-.18,1.6-.33a6.16,6.16,0,0,0,2-.94,3.85,3.85,0,0,0,.55-.52,5.72,5.72,0,0,0,1.15-3c.43-2.82,0-5.86.93-8.59a6.94,6.94,0,0,1,4.44-4.29c2.1-.74,4.28-1.28,6.42-1.88,6.62-1.86,13.37-4,20.28-4.28,3.63-.17,7.5.29,10.32,2.58,3.46,2.79,4.36,7.45,4.45,11.66,0,1.25.07,2.52,0,3.77-.38,6.29-2.33,12.37-7,16.82a22.44,22.44,0,0,1-7.28,4.66,41.74,41.74,0,0,1-4.78,1.57,55.16,55.16,0,0,1-8.76,1.52,130.13,130.13,0,0,1-19.94,0,32.22,32.22,0,0,0-9.36.3,5.42,5.42,0,0,0-1.92.77,1.47,1.47,0,0,0-.57.69c-.2.62.3,1.24.8,1.63a12.06,12.06,0,0,0,4.36,1.93,71.89,71.89,0,0,0,12.6,2.17c2.58.22,5.16.33,7.75.31,3.32,0,6.63-.25,10-.2,3.16.06,6.64.19,9.43,1.79.51.29,1.06.73,1,1.32-.07,1.66-3.41,2.23-4.64,2.51a57,57,0,0,1-6.76,1,184.08,184.08,0,0,1-21.78.79l-2.33,0c-3.44-.07-6.89-.19-10.33-.38a1,1,0,0,0-.76.18c-.62.67,1.76,1.33,2.06,1.43,1.18.4,2.39.67,3.59,1,2.14.59,4.46,1.39,5.77,3.3a6.8,6.8,0,0,1,1,4.3,4.76,4.76,0,0,0-1.72-3.07,10,10,0,0,0-3.25-1.83,31.82,31.82,0,0,0-6.45-1.58,25.18,25.18,0,0,1-5.78-1.27c-1.33-.55-3.07-1.74-2.82-3.41a2.88,2.88,0,0,1,2.43-2.1,11,11,0,0,1,4.22.26,101.85,101.85,0,0,0,15.78,1.53,104.52,104.52,0,0,0,10.91-.3c3.39-.26,7-.54,10.12-1.88l.47-.21a1,1,0,0,0,.49-.39c.2-.38-.23-.6-.53-.67a13.88,13.88,0,0,0-2-.24c-1.5-.1-3-.15-4.51-.2-7.27-.23-14.53-.42-21.77-1l-3.65-.31c-4.27-.36-8.74-.78-12.37-3.08A3.13,3.13,0,0,1,24,269.81c-.75-1.94,1.52-4.26,2.87-5.36a13.91,13.91,0,0,1,5.6-2.64,25.87,25.87,0,0,1,9.49,0c5.5.82,10.9,2.17,16.41,2.88,6.61.85,13.27.46,19.28-2.62a23.25,23.25,0,0,0,6.6-4.91c4-4.37,5.54-10.07,5.82-15.88a15.54,15.54,0,0,0-.53-5.84,7.2,7.2,0,0,0-3.34-3.75,15.74,15.74,0,0,0-5.65-1.59c-6.74-.81-13.52.19-20.16,1.27A58.86,58.86,0,0,0,52.56,233a4.46,4.46,0,0,0-1.7.81,3.84,3.84,0,0,0-1.1,2.52c-.2,1.87-.35,3.79-.71,5.65a8.18,8.18,0,0,1-2.11,4.42,6.71,6.71,0,0,1-4.32,1.73,10.84,10.84,0,0,1-2.48-.08A.15.15,0,0,1,40,248Z" transform="translate(-23.8 -207.24)"/><path class="a" d="M40.78,209.79a1.77,1.77,0,0,1,1.22-.6c3.85-.55,6.1,2.73,8.73,4.88a18.16,18.16,0,0,0,12.4,3.67,37.76,37.76,0,0,0,12.73-3.32c4.06-1.71,8-3.75,12.1-5.33a25.53,25.53,0,0,1,7.59-1.83,12.27,12.27,0,0,1,6.64,1.34,12.83,12.83,0,0,1,4.43,4.3,39.2,39.2,0,0,1,2.88,5.53,2.37,2.37,0,0,1,.25.72.23.23,0,0,1,0,.16c-.06.07-.18,0-.24,0a2.52,2.52,0,0,1-.61-.61,15.66,15.66,0,0,0-10.65-5.59,24.63,24.63,0,0,0-7.15.62c-6.71,1.4-13.1,4-19.78,5.51a39.83,39.83,0,0,1-9.67,1.13A17.64,17.64,0,0,1,55,219.07c-3.47-1.54-5.65-4.8-8.72-6.9a15.79,15.79,0,0,0-2.57-1.44,13.07,13.07,0,0,0-1.47-.56A7.23,7.23,0,0,1,40.78,209.79Z" transform="translate(-23.8 -207.24)"/><path class="a" d="M38.47,247.43c-.43.23-1.43-.86-1.67-1.12a8.46,8.46,0,0,1-1.57-2.73,29.41,29.41,0,0,1-1.55-9.94,57.66,57.66,0,0,1,1.47-14.34A31.63,31.63,0,0,1,36.43,215a11.55,11.55,0,0,1,1.92-3.74c.38-.42,1.11-.69.8.12s-.61,1.31-.89,2a24,24,0,0,0-1.45,5.19,59.36,59.36,0,0,0-.18,20.51,34.1,34.1,0,0,0,1.63,6.53c.11.29.57,1.54.25,1.79Z" transform="translate(-23.8 -207.24)"/><polygon class="a" points="19.95 41.4 19.08 53.03 18.68 53.03 17.6 41.4 19.95 41.4"/><circle class="a" cx="18.88" cy="53.03" r="0.2"/><path class="a" d="M161.59,267.72a17.66,17.66,0,0,1-8.26,4.56,32.36,32.36,0,0,1-8.59,1.12,39,39,0,0,1-7.31-.75,49.17,49.17,0,0,1-5.75-1.37V226.81a28.19,28.19,0,0,1,5.55-1.53,42.1,42.1,0,0,1,7.17-.64c5.46,0,9.89,1,13.29,2.93a11.5,11.5,0,0,1,6,10.58A10.76,10.76,0,0,1,162,244a12,12,0,0,1-3.47,3.53,14,14,0,0,1,4.66,4,11,11,0,0,1,2.18,6.53A13.2,13.2,0,0,1,161.59,267.72Zm-17.25-23.89h3.85a4.13,4.13,0,0,0,2.78-1.12,3.91,3.91,0,0,0,1.22-3.06,3.49,3.49,0,0,0-1.52-3,6.19,6.19,0,0,0-3.7-1.12,6.45,6.45,0,0,0-2.64.45Zm0,18.06a10.42,10.42,0,0,0,2.83.42c3.54,0,6-1.88,6-4.84a4.25,4.25,0,0,0-1.52-3.41,5.29,5.29,0,0,0-3.48-1.28h-3.86Z" transform="translate(-23.8 -207.24)"/><path class="a" d="M172.13,245.51a19.12,19.12,0,0,1,13.12-4.81,19.34,19.34,0,0,1,13.18,4.81,15.52,15.52,0,0,1,1.18,21.92,13.14,13.14,0,0,1-1.18,1.18,19.29,19.29,0,0,1-13.25,4.79,18.92,18.92,0,0,1-13.05-4.85A15.38,15.38,0,0,1,167,257.08,15.71,15.71,0,0,1,172.13,245.51ZM180.72,262a6.58,6.58,0,0,0,4.59,1.91A6.46,6.46,0,0,0,190,262a7.13,7.13,0,0,0,2-5,7,7,0,0,0-2.05-5,6.49,6.49,0,0,0-4.66-1.87,6.08,6.08,0,0,0-4.53,1.87,7.18,7.18,0,0,0-2.11,5A6.76,6.76,0,0,0,180.72,262Z" transform="translate(-23.8 -207.24)"/><path class="a" d="M227.88,269.54a15.25,15.25,0,0,1-9.75,3.86,11.43,11.43,0,0,1-9.12-4.72,17.35,17.35,0,0,1-3.66-10.35c0-5.23,1.65-9.66,4.82-12.82,3.34-3.22,7.86-4.84,13.51-4.81a25.14,25.14,0,0,1,9.82,2.08c3.07,1.3,5.15,2.61,6.31,3.92v25.58H227.88Zm-2-7.3a9.68,9.68,0,0,0,2-2.61v-7.52l-1.62-1a5.32,5.32,0,0,0-2.71-.64c-3.7,0-6.2,2.45-6.2,6.79,0,4,1.92,6.27,5.32,6.27a4.72,4.72,0,0,0,3.19-1.3Z" transform="translate(-23.8 -207.24)"/><path class="b" d="M258.84,272.35H246.37V224.81h12.47v19.6H259l.69-1.21,11.2-18.39h14.26l-13.81,21.65L287,272.34H273.1l-14.26-24.93Z" transform="translate(-23.8 -207.24)"/><path class="b" d="M291.37,245a18.39,18.39,0,0,1,12.93-4.92,18.62,18.62,0,0,1,13,4.92,16.26,16.26,0,0,1,.63,23l-.63.62a18.52,18.52,0,0,1-13.05,4.87,18.2,18.2,0,0,1-12.86-5,16,16,0,0,1-5.08-11.72A16.27,16.27,0,0,1,291.37,245Zm8.47,16.87a6.36,6.36,0,0,0,4.52,1.95,6.25,6.25,0,0,0,4.59-1.95,7.38,7.38,0,0,0,2-5.11,7.21,7.21,0,0,0-2-5.08,6.26,6.26,0,0,0-4.59-1.93,5.9,5.9,0,0,0-4.47,1.93,7.5,7.5,0,0,0-2.08,5.14,7,7,0,0,0,2.09,5Z" transform="translate(-23.8 -207.24)"/><path class="b" d="M328.3,261.8a14.16,14.16,0,0,0,3.33,1.59,9.86,9.86,0,0,0,3.35.68c1.66,0,2.48-.52,2.48-1.59,0-.42-.33-.85-.95-1.2a33.16,33.16,0,0,0-3.12-1.41,14.57,14.57,0,0,1-5.27-3.54,9.36,9.36,0,0,1,.87-13.27c2.31-2,5.41-3,9.31-3a25.38,25.38,0,0,1,5.83.68,17.14,17.14,0,0,1,4.53,1.79l-4.2,7.26a10.63,10.63,0,0,0-4.62-1.13c-1.54,0-2.24.45-2.24,1.27,0,.55.46,1,1.4,1.4a55,55,0,0,1,6.12,3.32,8.7,8.7,0,0,1,3.62,4.82,11.87,11.87,0,0,1,.45,3.51,9.52,9.52,0,0,1-3.58,7.2,14.54,14.54,0,0,1-9.41,3.28A21.84,21.84,0,0,1,324,270.05Z" transform="translate(-23.8 -207.24)"/><path class="b" d="M365.55,225.59v15.7h6.81v9.36h-6.81v9.8c0,2.09.81,3.13,2.41,3.16a5.35,5.35,0,0,0,3.13-.82l3.47,7.7a8.79,8.79,0,0,1-3,1.79,15.27,15.27,0,0,1-5.86,1.2c-3.64,0-6.41-.88-8.33-2.67-2.41-2.18-3.61-5.76-3.58-10.81V225.59Z" transform="translate(-23.8 -207.24)"/><path class="b" d="M379.42,241.29h11.73v17.38a5.14,5.14,0,0,0,1,3.19,3.82,3.82,0,0,0,3.13,1.69,7.29,7.29,0,0,0,5.73-2.48V241.29h11.82v24.87a20.39,20.39,0,0,1-7.2,5,26.44,26.44,0,0,1-10.81,2.27,18,18,0,0,1-10.29-3.12,11.78,11.78,0,0,1-5.11-10.09Z" transform="translate(-23.8 -207.24)"/><path class="b" d="M430.48,241.35v3.19a12.51,12.51,0,0,1,2.73-2.8,7.81,7.81,0,0,1,4.66-1.66,10.53,10.53,0,0,1,4.49.91l1.4.81a2.62,2.62,0,0,1,.65.59l-4.85,9.41a4.68,4.68,0,0,0-1.27-.84,8.53,8.53,0,0,0-3.16-.5,3.92,3.92,0,0,0-3.06,1.4,7.64,7.64,0,0,0-1.59,2.34v18.14H418.76v-31Z" transform="translate(-23.8 -207.24)"/><path class="b" d="M464.41,269.55a14.72,14.72,0,0,1-9.6,3.93,11.15,11.15,0,0,1-9-4.81,18.1,18.1,0,0,1-3.61-10.58c0-5.35,1.63-9.87,4.75-13.09,3.29-3.29,7.75-5,13.32-4.92A23.72,23.72,0,0,1,470,242.2c3,1.33,5.08,2.66,6.22,4v26.15H464.42Zm-2-7.46a10.19,10.19,0,0,0,2-2.67v-7.69l-1.59-1a5.2,5.2,0,0,0-2.67-.65c-3.65,0-6.12,2.51-6.12,6.95,0,4.07,1.88,6.41,5.24,6.41A4.7,4.7,0,0,0,462.43,262.09Z" transform="translate(-23.8 -207.24)"/></svg>
